<?xml version="1.0" standalone="no"?>
<!DOCTYPE svg PUBLIC "-//W3C//DTD SVG 20010904//EN"
 "http://www.w3.org/TR/2001/REC-SVG-20010904/DTD/svg10.dtd">
<svg version="1.0" xmlns="http://www.w3.org/2000/svg"
 width="1328.000000pt" height="1328.000000pt" viewBox="0 0 1328.000000 1328.000000"
 preserveAspectRatio="xMidYMid meet">

<g transform="translate(0.000000,1328.000000) scale(0.100000,-0.100000)"
fill="#000000" stroke="none">
<path d="M4228 4672 c-27 -3 -140 -59 -468 -231 -85 -44 -301 -153 -480 -242
-856 -425 -975 -485 -978 -496 -2 -6 6 -14 17 -18 12 -4 21 -15 21 -26 0 -21
59 -119 71 -119 4 0 20 -21 35 -47 15 -26 31 -52 36 -58 5 -5 24 -31 44 -58
39 -52 42 -52 103 3 18 16 40 30 47 30 7 0 17 6 21 13 10 16 122 107 132 107
4 0 29 20 57 45 27 24 55 44 62 45 6 0 12 5 12 10 0 6 5 10 12 10 6 0 19 7 29
16 20 18 88 57 139 80 19 9 40 24 47 34 12 16 75 52 89 50 4 -1 14 16 24 37
16 36 60 86 60 68 0 -7 39 33 85 88 19 22 130 111 185 147 12 8 62 45 110 83
49 37 91 67 95 67 3 0 18 11 32 24 14 13 37 30 52 38 14 7 39 24 54 38 16 14
55 43 87 65 198 138 259 209 168 197z"/>
<path d="M3948 4603 c7 -3 16 -2 19 1 4 3 -2 6 -13 5 -11 0 -14 -3 -6 -6z"/>
<path d="M3715 4117 c-125 -129 -180 -191 -180 -200 0 -4 -45 -51 -100 -104
-55 -52 -100 -98 -100 -102 0 -15 -33 -48 -72 -74 -24 -15 -43 -33 -43 -41 0
-8 -9 -16 -19 -19 -11 -3 -28 -18 -38 -33 -10 -16 -24 -30 -31 -31 -28 -6 -78
-75 -67 -93 3 -6 -3 -10 -15 -10 -12 0 -19 -4 -15 -9 9 -15 -47 -69 -75 -73
-17 -2 -25 -9 -25 -23 0 -11 -8 -21 -18 -23 -9 -2 -14 -8 -11 -13 3 -6 -1 -18
-9 -27 -15 -17 -17 -21 -17 -43 0 -6 -6 -9 -14 -6 -7 3 -24 -2 -37 -11 -16
-11 -24 -12 -27 -4 -2 7 -10 12 -19 12 -17 0 -48 -28 -40 -37 9 -9 140 -4 146
6 8 12 99 117 141 161 19 21 78 84 130 141 52 57 109 117 125 135 17 17 57 62
90 100 148 171 203 227 215 219 18 -11 10 -35 -12 -36 -13 -1 -3 -6 20 -11 24
-5 46 -8 48 -6 10 11 -22 68 -38 68 -10 0 -18 4 -18 9 0 13 29 41 42 41 5 0 8
5 6 12 -2 6 3 19 11 28 9 9 39 42 66 74 28 32 60 69 73 83 20 22 27 33 19 33
-1 0 -43 -42 -92 -93z"/>
<path d="M0 2633 c1 -1195 3 -1515 13 -1503 7 9 50 63 97 119 113 138 144 176
215 263 33 40 68 82 78 93 11 11 40 47 65 80 25 33 49 62 53 65 4 3 21 22 38
43 31 40 150 173 211 238 109 115 169 182 310 343 14 16 30 34 35 40 34 36
190 222 240 286 33 41 62 77 65 80 17 15 110 149 110 156 -1 13 -96 84 -112
84 -11 0 -11 -2 1 -9 11 -7 10 -11 -4 -19 -12 -6 -18 -21 -18 -41 0 -26 -4
-31 -24 -31 -13 0 -36 -14 -53 -31 -30 -32 -32 -53 -5 -42 10 3 15 -2 15 -16
0 -12 -6 -21 -16 -21 -8 0 -20 -14 -26 -30 -8 -26 -13 -29 -25 -18 -8 7 -19
21 -23 33 -7 17 -9 17 -9 3 -1 -10 -5 -18 -10 -18 -5 0 -12 -8 -15 -17 -6 -15
-4 -15 14 2 17 15 20 16 20 2 0 -8 3 -17 8 -20 4 -2 2 -3 -4 -1 -6 1 -17 -2
-24 -6 -9 -5 -20 0 -32 13 -11 12 -16 16 -12 8 5 -10 3 -13 -8 -8 -9 3 -19 3
-22 -1 -13 -12 -51 -8 -62 7 -10 13 -14 13 -28 2 -21 -18 -44 0 -40 31 1 13 3
30 3 38 1 12 3 13 10 1 7 -11 10 -9 16 8 8 26 -2 42 -15 22 -9 -15 -40 -8 -40
9 0 5 3 9 8 9 24 -4 42 3 42 16 0 12 9 14 41 10 25 -3 38 -1 34 5 -4 6 5 10
19 10 14 0 26 6 26 13 -1 16 -30 55 -30 39 0 -7 -5 -12 -11 -12 -6 0 -8 7 -5
15 8 22 -20 30 -39 12 -8 -9 -15 -27 -15 -41 0 -32 -20 -35 -21 -3 0 12 -2 33
-5 46 -2 13 2 34 11 47 9 14 11 25 5 29 -6 3 -10 2 -10 -4 0 -6 -7 -8 -15 -5
-10 4 -13 13 -10 25 4 11 2 19 -4 19 -6 0 -11 -7 -11 -16 0 -8 -4 -13 -8 -10
-5 3 -9 -1 -9 -9 0 -8 6 -15 13 -15 20 0 12 -38 -9 -44 -17 -4 -19 -11 -14
-46 4 -33 2 -43 -11 -48 -10 -3 -22 -13 -29 -21 -9 -13 -14 -13 -24 -4 -10 10
-10 18 1 37 7 14 10 32 7 40 -5 12 0 16 18 16 27 0 33 21 12 38 -8 7 -18 6
-32 -4 -10 -8 -28 -11 -38 -8 -16 5 -18 2 -12 -16 6 -20 5 -22 -25 -15 -18 4
-38 8 -44 9 -6 1 -16 5 -23 9 -6 4 -18 4 -26 1 -8 -3 -18 -1 -22 5 -3 6 -1 11
6 11 7 0 9 3 5 7 -3 4 -27 6 -51 4 -36 -1 -45 1 -45 15 0 9 6 14 13 11 8 -3
14 4 15 20 2 20 -2 23 -18 18 -14 -4 -22 -1 -27 11 -6 16 -7 16 -14 -2 -7 -17
-8 -17 -8 -1 -1 9 -6 17 -11 17 -7 0 -7 -6 0 -19 12 -23 13 -51 2 -51 -5 0
-18 9 -30 20 -11 11 -27 17 -35 14 -8 -3 -18 -1 -22 5 -3 7 0 8 9 5 12 -4 16
0 16 16 0 11 4 19 9 15 9 -5 27 32 23 48 -1 4 3 7 9 7 6 0 9 -7 6 -14 -9 -22
21 -8 34 16 6 11 16 17 23 15 8 -3 11 4 8 24 -4 24 -1 29 17 29 12 0 21 6 21
16 0 11 -6 14 -20 9 -14 -5 -20 -2 -20 9 0 9 -3 15 -7 13 -5 -1 -9 2 -11 7 -3
11 20 18 55 18 14 0 20 4 16 11 -3 6 -1 7 5 3 20 -12 35 5 16 18 -14 11 -14
15 -4 21 9 5 15 4 18 -3 2 -7 10 -12 17 -12 22 0 38 -37 20 -44 -22 -8 -18
-26 4 -26 25 0 36 18 33 50 -2 16 4 29 18 38 17 10 20 10 20 -2 0 -8 -4 -17
-9 -20 -5 -3 -11 -20 -13 -37 -4 -26 -2 -30 14 -26 10 3 24 -1 32 -8 11 -12
16 -12 32 1 17 14 17 15 1 10 -16 -5 -16 -4 -2 18 14 21 14 24 -1 37 -14 11
-16 10 -12 -11 2 -20 -2 -26 -22 -28 -14 -2 -20 1 -15 5 6 4 11 22 12 38 2 24
-4 35 -31 55 -19 14 -33 27 -31 30 2 3 -10 6 -26 7 -21 2 -29 -2 -29 -14 0
-11 7 -14 24 -11 19 4 22 1 18 -14 -3 -13 -14 -18 -38 -18 -29 0 -34 4 -34 23
0 13 5 28 12 35 6 6 9 15 5 19 -4 4 -13 1 -19 -5 -20 -20 -35 -14 -33 13 3 24
35 67 35 46 0 -6 7 -11 15 -11 8 0 15 -9 15 -20 0 -13 7 -20 20 -20 17 0 19 4
14 28 -7 27 -7 27 15 8 11 -11 24 -16 28 -13 3 4 0 7 -8 7 -12 0 -11 2 1 10
12 8 9 15 -20 45 -38 40 -51 43 -76 18 -17 -17 -17 -16 -11 15 6 30 3 37 -30
65 -20 18 -44 39 -52 47 -9 8 -37 31 -61 50 -50 39 -62 49 -139 114 -30 25
-73 58 -95 73 -23 15 -43 30 -46 33 -3 3 -25 19 -50 35 -25 16 -47 32 -50 35
-4 4 -133 92 -167 113 -11 6 -13 -289 -13 -1510z m670 927 c0 -5 -5 -10 -11
-10 -5 0 -7 5 -4 10 3 6 8 10 11 10 2 0 4 -4 4 -10z m-70 -144 c0 -2 -7 -7
-16 -10 -8 -3 -12 -2 -9 4 6 10 25 14 25 6z m60 -7 c0 -5 5 -7 10 -4 6 4 10
-7 9 -27 -1 -18 -3 -25 -6 -15 -5 21 -23 23 -23 3 0 -8 -5 -18 -10 -21 -10 -6
-12 50 -3 68 6 11 23 9 23 -4z m-86 -214 c3 -8 1 -15 -4 -15 -6 0 -10 7 -10
15 0 8 2 15 4 15 2 0 6 -7 10 -15z m-144 -60 c0 -8 -4 -15 -10 -15 -5 0 -10
-7 -10 -15 0 -8 -6 -12 -15 -9 -17 7 -15 25 5 41 20 17 30 16 30 -2z m40 -64
c0 -10 -6 -21 -14 -24 -9 -4 -12 2 -11 16 3 27 3 27 15 27 6 0 10 -9 10 -19z
m74 -20 c6 -10 -22 -37 -29 -29 -8 7 5 38 15 38 5 0 11 -4 14 -9z m66 -45 c0
-3 -4 -8 -10 -11 -5 -3 -10 -1 -10 4 0 6 5 11 10 11 6 0 10 -2 10 -4z m34 -2
c20 -8 20 -20 0 -28 -8 -3 -12 -2 -9 4 3 6 1 10 -4 10 -6 0 -11 5 -11 10 0 12
3 12 24 4z m136 -47 c0 -23 -20 -62 -20 -39 0 6 -5 12 -11 12 -6 0 -9 -7 -5
-15 7 -18 -3 -47 -14 -40 -4 2 -6 23 -5 46 4 61 55 94 55 36z m223 13 c-3 -11
-9 -20 -13 -20 -5 0 -6 9 -3 20 3 11 9 20 13 20 5 0 6 -9 3 -20z m-319 -5 c3
-8 1 -15 -4 -15 -6 0 -10 7 -10 15 0 8 2 15 4 15 2 0 6 -7 10 -15z m342 -32
c-11 -11 -19 6 -11 24 8 17 8 17 12 0 3 -10 2 -21 -1 -24z m-176 2 c-8 -10 -9
-15 -1 -15 6 0 11 -5 11 -11 0 -5 -4 -7 -10 -4 -5 3 -10 2 -10 -3 0 -6 -9 -6
-23 1 l-24 11 31 21 c34 24 46 24 26 0z m-46 -67 c-9 -14 -23 2 -17 18 4 12 8
13 14 3 4 -7 5 -17 3 -21z m142 -15 c-10 -10 -19 5 -10 18 6 11 8 11 12 0 2
-7 1 -15 -2 -18z m44 -22 c0 -6 -4 -13 -10 -16 -5 -3 -10 1 -10 9 0 9 5 16 10
16 6 0 10 -4 10 -9z m-65 -42 c-10 -15 -25 -10 -19 6 4 8 10 12 15 9 5 -3 7
-10 4 -15z m135 -113 c0 -2 -7 -6 -15 -10 -8 -3 -15 -1 -15 4 0 6 7 10 15 10
8 0 15 -2 15 -4z"/>
<path d="M740 2946 c0 -2 7 -7 16 -10 8 -3 12 -2 9 4 -6 10 -25 14 -25 6z"/>
<path d="M3796 3976 c-10 -24 -27 -40 -62 -57 -57 -27 -79 -45 -64 -54 27 -17
160 87 160 125 0 31 -18 23 -34 -14z"/>
<path d="M9826 3882 c-5 -18 -5 -36 -2 -39 7 -7 19 43 13 59 -2 7 -7 -2 -11
-20z"/>
<path d="M827 3503 c-2 -4 -3 -16 -1 -26 2 -13 -2 -17 -12 -13 -8 3 -14 1 -14
-3 0 -9 24 -21 41 -21 6 0 8 4 4 9 -3 6 2 14 10 18 14 8 13 11 -4 27 -10 9
-21 14 -24 9z"/>
<path d="M10307 3473 c-3 -5 -8 -37 -12 -73 -3 -35 -10 -71 -15 -79 -4 -9 -11
-59 -15 -111 -11 -130 -10 -124 -17 -135 -6 -11 -14 -64 -24 -155 -3 -30 -8
-58 -11 -62 -2 -5 -6 -34 -8 -65 -4 -56 -9 -88 -20 -143 -3 -14 -7 -45 -10
-70 -4 -43 -6 -60 -22 -125 -4 -16 -7 -34 -8 -40 -1 -5 -4 -17 -8 -25 -3 -8
-8 -37 -9 -65 -3 -49 -4 -50 -33 -48 -21 2 -41 15 -68 45 -102 114 -168 179
-177 173 -6 -3 -10 -21 -10 -38 0 -18 -7 -81 -15 -142 -8 -60 -21 -225 -29
-365 -9 -140 -20 -322 -26 -405 -13 -187 -18 -284 -25 -455 -7 -147 -10 -165
-25 -155 -7 4 -7 12 -2 18 9 13 8 54 -1 63 -7 8 -18 -48 -20 -111 -1 -27 -6
-53 -10 -56 -5 -3 -12 -28 -17 -55 -11 -68 3 685 16 846 14 171 20 485 16 892
l-2 217 -55 12 c-42 9 -58 10 -67 1 -7 -7 -22 -12 -35 -12 -23 0 -46 -19 -293
-256 -58 -55 -134 -127 -169 -160 -36 -32 -86 -79 -111 -104 -97 -93 -480
-454 -564 -530 -26 -25 -79 -74 -116 -110 -69 -66 -302 -286 -349 -329 -14
-13 -98 -92 -186 -175 -87 -83 -200 -189 -250 -236 -195 -185 -250 -237 -300
-285 -91 -87 -196 -187 -354 -335 -227 -212 -231 -216 -231 -223 0 -4 1247 -7
2770 -7 1524 0 2770 3 2770 8 0 16 -202 217 -216 214 -8 -2 -12 3 -8 11 4 12
-39 63 -164 192 -27 28 -56 62 -66 78 -10 15 -25 27 -32 27 -8 0 -14 4 -14 10
0 14 -32 50 -45 50 -6 0 -15 10 -20 22 -6 13 -20 27 -32 33 -13 5 -23 14 -23
20 0 14 -87 105 -100 105 -5 0 -10 6 -10 13 -1 16 -143 167 -158 167 -7 0 -12
7 -12 15 0 8 -24 38 -52 68 -29 29 -80 84 -113 121 -33 38 -66 74 -73 82 -13
13 -10 32 24 159 35 133 123 487 149 600 32 140 57 254 70 315 8 36 24 108 35
160 11 52 26 120 32 150 6 30 17 64 24 75 8 11 14 36 14 57 0 20 6 57 14 80
20 61 29 131 16 123 -5 -3 -10 -16 -10 -28 0 -12 -7 -31 -15 -41 -8 -11 -15
-30 -15 -42 0 -27 -18 -41 -26 -21 -6 17 24 172 81 414 18 76 20 177 3 191
-15 12 -48 1 -67 -22 -17 -20 -32 -21 -25 -2 7 19 -11 29 -24 13 -9 -12 -36
-91 -46 -137 -2 -14 -14 -61 -26 -105 -12 -44 -26 -100 -31 -125 -6 -25 -14
-54 -18 -65 -8 -19 -18 -59 -42 -177 -43 -212 -53 -254 -59 -263 -4 -5 -11
-34 -15 -62 -4 -29 -11 -55 -15 -58 -5 -3 -12 -27 -16 -53 -3 -26 -10 -51 -14
-57 -4 -5 -11 -30 -15 -55 -4 -25 -11 -53 -16 -62 -5 -9 -16 -47 -25 -85 -38
-166 -86 -342 -109 -403 -8 -19 -24 -69 -37 -110 -13 -41 -28 -75 -34 -75 -12
0 -105 77 -133 109 -38 45 -99 112 -141 155 -25 25 -68 72 -97 104 -29 31 -54
57 -56 57 -3 0 -10 -20 -17 -45 -17 -60 -34 -47 -24 19 4 28 8 120 8 204 1
129 -1 152 -14 152 -13 0 -13 2 0 9 8 6 18 7 23 4 5 -3 4 4 -3 16 -17 33 -35
20 -37 -30 -2 -24 -10 -105 -18 -179 -8 -74 -16 -153 -19 -175 -2 -22 -6 -50
-9 -63 -3 -12 -9 -83 -13 -157 -4 -74 -10 -135 -14 -135 -8 0 -6 80 5 205 3
39 10 129 16 200 5 72 12 150 15 175 5 48 24 294 49 630 8 113 19 244 25 291
12 104 13 164 0 134 -5 -12 -8 38 -9 124 -1 140 -3 162 -14 144z m1033 -103
c0 -5 -4 -10 -10 -10 -5 0 -10 5 -10 10 0 6 5 10 10 10 6 0 10 -4 10 -10z
m-15 -52 c-3 -13 -7 -34 -9 -48 -12 -65 -19 -90 -27 -90 -12 0 -11 15 5 82 7
32 10 61 7 64 -3 4 0 4 7 0 6 -4 12 -2 12 3 0 6 2 11 5 11 3 0 3 -10 0 -22z
m-99 -436 c-12 -12 -18 8 -10 35 l8 28 4 -28 c2 -16 1 -31 -2 -35z m-16 -67
c0 -8 -4 -15 -10 -15 -5 0 -10 7 -10 15 0 8 5 15 10 15 6 0 10 -7 10 -15z
m-17 -78 c7 -20 -31 -197 -83 -387 -14 -52 -41 -157 -55 -220 -7 -30 -29 -116
-48 -190 -50 -190 -113 -442 -132 -525 -9 -38 -23 -88 -30 -110 -7 -22 -16
-53 -20 -69 -3 -15 -7 -27 -9 -25 -6 6 20 147 44 244 12 50 28 117 35 150 25
114 67 299 99 430 8 33 23 98 35 145 11 47 36 155 56 240 20 85 43 180 50 210
24 104 45 141 58 107z m-863 -924 c0 -21 -5 -45 -10 -53 -7 -11 -10 0 -10 38
0 28 5 52 10 52 6 0 10 -17 10 -37z m-23 -185 c-2 -18 -4 -4 -4 32 0 36 2 50
4 33 2 -18 2 -48 0 -65z m-100 -175 c-2 -21 -4 -6 -4 32 0 39 2 55 4 38 2 -18
2 -50 0 -70z m90 35 c-3 -8 -6 -5 -6 6 -1 11 2 17 5 13 3 -3 4 -12 1 -19z
m-100 -140 c-2 -13 -4 -5 -4 17 -1 22 1 32 4 23 2 -10 2 -28 0 -40z m600 -220
c-3 -8 -6 -5 -6 6 -1 11 2 17 5 13 3 -3 4 -12 1 -19z m-30 -110 c-3 -7 -5 -2
-5 12 0 14 2 19 5 13 2 -7 2 -19 0 -25z m-1037 -132 c0 -3 -4 -8 -10 -11 -5
-3 -10 -1 -10 4 0 6 5 11 10 11 6 0 10 -2 10 -4z m-4 -63 c-2 -21 -4 -63 -6
-93 l-3 -55 -6 70 c-4 39 -5 80 -3 93 7 36 20 25 18 -15z m-56 -155 c0 -7 -4
-19 -9 -27 -7 -10 -9 -7 -8 12 2 26 17 39 17 15z m50 -87 c0 -6 -4 -13 -10
-16 -5 -3 -10 1 -10 9 0 9 5 16 10 16 6 0 10 -4 10 -9z"/>
<path d="M885 3426 c0 -13 4 -28 8 -32 4 -5 5 0 1 9 -4 12 -2 17 7 15 8 -2 14
4 14 12 0 8 -7 16 -15 18 -11 2 -16 -5 -15 -22z"/>
<path d="M939 3409 c-6 -74 -3 -109 8 -109 7 0 13 4 13 9 0 5 9 7 20 4 14 -4
20 0 20 11 0 9 7 16 15 16 8 0 15 -7 15 -15 0 -8 -6 -14 -12 -12 -8 1 -14 -10
-16 -25 -4 -31 -28 -38 -35 -10 -3 10 -5 6 -6 -10 0 -16 -5 -28 -11 -28 -5 0
-10 -9 -10 -20 0 -11 -4 -20 -10 -20 -5 0 -10 -5 -10 -11 0 -6 7 -9 15 -5 13
4 14 2 5 -14 -6 -11 -7 -20 -3 -19 22 4 32 -2 27 -16 -4 -8 -14 -15 -24 -15
-10 0 -23 7 -30 15 -7 8 -19 15 -26 15 -8 0 -14 5 -14 12 0 6 -6 3 -14 -8 -8
-10 -10 -20 -5 -22 5 -2 9 -19 9 -37 0 -24 -5 -34 -20 -38 -20 -5 -29 -47 -10
-47 6 0 10 7 10 15 0 17 16 20 25 4 4 -6 16 3 30 21 14 19 26 27 30 21 10 -17
49 15 50 41 0 16 6 23 20 23 14 0 21 8 23 28 2 15 -2 27 -8 27 -6 0 -18 6 -25
14 -17 17 -1 36 32 36 20 0 22 4 17 30 -6 26 -4 30 16 30 16 0 21 -4 16 -16
-4 -12 -2 -15 9 -11 8 4 19 -1 24 -11 9 -15 10 -15 11 3 0 21 -36 51 -57 47
-7 -2 -13 3 -13 10 0 8 -9 21 -19 30 -17 14 -21 15 -32 2 -6 -8 -17 -14 -23
-13 -7 0 -6 2 2 6 18 7 14 38 -8 58 -16 14 -20 15 -21 4z m-31 -296 c2 -14 -4
-22 -17 -26 -23 -6 -24 -3 -15 31 8 27 28 24 32 -5z"/>
<path d="M925 3271 c-3 -5 -1 -12 5 -16 5 -3 10 1 10 9 0 18 -6 21 -15 7z"/>
<path d="M710 3255 c0 -8 7 -15 15 -15 8 0 15 7 15 15 0 8 -7 15 -15 15 -8 0
-15 -7 -15 -15z"/>
<path d="M1109 3236 c-16 -12 -23 -56 -8 -56 5 0 9 4 9 10 0 19 35 29 59 16
l23 -13 -23 -21 c-27 -26 -39 -28 -39 -7 0 13 -4 14 -22 4 -16 -9 -23 -9 -26
0 -9 28 -22 6 -22 -39 0 -29 5 -50 11 -50 7 0 8 11 4 29 -5 24 -2 32 17 41 22
11 22 10 4 -4 -11 -9 -17 -17 -13 -17 4 -1 12 -3 17 -4 6 -1 15 -3 20 -4 6 0
9 -4 9 -8 -4 -23 3 -31 21 -26 12 3 20 0 20 -7 0 -9 6 -8 18 3 10 10 23 17 29
17 6 0 9 8 6 19 -3 13 2 20 17 24 18 5 19 8 10 24 -14 21 -91 75 -112 79 -8 1
-21 -3 -29 -10z m86 -105 c-15 -14 -55 -23 -55 -13 0 15 12 22 39 22 15 0 21
-4 16 -9z"/>
<path d="M702 3196 c2 -32 37 -96 38 -69 0 11 55 29 73 25 5 -2 7 3 5 10 -6
16 -48 23 -48 8 0 -6 -16 5 -35 25 l-36 35 3 -34z"/>
<path d="M5178 3170 c3 -8 10 -22 16 -30 7 -8 18 -28 26 -44 8 -16 43 -61 78
-100 74 -83 75 -85 87 -111 8 -16 10 -10 13 29 2 38 -3 61 -25 103 -30 60 -45
72 -68 53 -9 -7 -19 -10 -23 -6 -4 4 4 16 17 27 32 26 21 35 -18 14 -37 -19
-42 -3 -8 26 19 16 20 18 4 19 -10 0 -27 -5 -38 -10 -15 -9 -19 -7 -19 5 0 9
7 18 15 21 28 11 15 21 -24 20 -30 0 -37 -4 -33 -16z"/>
<path d="M1030 3161 c0 -6 4 -13 10 -16 6 -3 7 1 4 9 -7 18 -14 21 -14 7z"/>
<path d="M2700 3150 c0 -5 7 -10 16 -10 8 0 12 5 9 10 -3 6 -10 10 -16 10 -5
0 -9 -4 -9 -10z"/>
<path d="M8121 3091 l-24 -19 24 -12 c13 -7 40 -25 59 -40 45 -35 78 -43 83
-21 7 33 -15 70 -54 90 -48 25 -57 26 -88 2z"/>
<path d="M686 3081 c-3 -5 1 -11 9 -15 15 -6 29 7 18 18 -9 9 -21 8 -27 -3z"/>
<path d="M5545 2922 c-69 -24 -130 -72 -170 -134 -16 -27 -16 -30 2 -65 26
-53 71 -124 98 -153 12 -14 27 -44 34 -67 6 -23 38 -93 71 -155 57 -106 118
-230 161 -324 11 -23 19 -48 19 -57 0 -9 4 -18 10 -22 5 -3 14 -20 19 -38 12
-42 69 -206 80 -232 5 -11 19 -45 31 -75 42 -108 95 -226 122 -273 16 -26 28
-52 28 -57 0 -4 20 -41 45 -82 25 -40 50 -84 57 -98 22 -44 120 -184 142 -202
17 -14 86 -23 86 -12 0 2 -9 25 -19 53 -11 27 -17 52 -14 55 4 3 1 6 -5 6 -7
0 -12 5 -12 11 0 6 -17 46 -38 88 -22 42 -42 90 -46 106 -4 17 -43 103 -87
192 -43 90 -79 165 -79 168 0 3 -17 42 -39 88 -34 74 -56 123 -81 182 -4 11
-20 46 -34 78 -14 32 -26 60 -26 63 0 3 -15 38 -34 78 -19 41 -41 99 -50 130
l-14 56 30 -25 c16 -14 40 -25 52 -25 13 0 26 -3 30 -7 10 -11 68 -13 86 -3 8
4 43 10 77 13 l62 6 83 -77 c45 -42 147 -140 226 -217 79 -77 197 -192 262
-255 65 -63 120 -123 124 -132 3 -10 12 -18 19 -18 8 0 38 -23 68 -50 30 -28
62 -53 72 -56 9 -3 17 -10 17 -15 0 -5 5 -9 11 -9 6 0 31 -18 56 -40 41 -36
63 -48 63 -35 0 17 -36 75 -47 75 -13 0 -17 12 -14 37 2 11 -32 66 -49 83 -3
3 -14 18 -24 34 -17 26 -17 30 -2 38 25 14 19 30 -19 61 -19 15 -35 23 -35 17
0 -7 -6 -10 -12 -7 -7 2 -12 9 -11 14 1 5 -10 18 -24 28 -14 11 -53 49 -87 85
-109 116 -260 264 -320 315 -32 28 -66 57 -75 65 -9 8 -48 40 -86 70 -118 92
-258 227 -420 403 -54 60 -108 113 -118 119 -17 9 -18 7 -12 -24 4 -18 12 -39
17 -45 6 -7 13 -43 15 -80 7 -91 -11 -73 -26 26 -7 40 -18 83 -26 94 -12 17
-15 18 -15 5 0 -8 -6 -20 -13 -27 -18 -14 -37 5 -37 37 0 24 -21 52 -39 52 -6
0 -11 7 -11 15 0 8 -6 15 -14 15 -8 0 -18 5 -22 12 -5 8 3 9 30 5 l37 -6 -32
57 c-17 31 -32 58 -33 59 -5 7 -55 10 -71 5z m65 -147 c0 -8 -4 -15 -10 -15
-5 0 -10 7 -10 15 0 8 5 15 10 15 6 0 10 -7 10 -15z m-76 -70 c11 -8 16 -18
12 -22 -4 -5 -13 -1 -19 8 -7 9 -19 18 -27 22 -13 5 -13 5 0 6 8 0 24 -6 34
-14z m-58 -32 c-10 -10 -19 5 -10 18 6 11 8 11 12 0 2 -7 1 -15 -2 -18z m1538
-1205 c5 -20 4 -20 -15 0 -10 12 -19 26 -19 32 0 6 -6 13 -14 16 -8 3 -17 13
-21 22 -3 9 9 2 29 -17 19 -18 37 -42 40 -53z"/>
<path d="M8310 2866 c0 -8 12 -19 28 -25 15 -6 39 -19 54 -29 79 -51 98 -61
98 -48 0 7 -24 25 -52 40 -75 39 -92 49 -101 64 -11 16 -27 15 -27 -2z"/>
<path d="M2183 2847 c-24 -5 -43 -13 -43 -16 0 -3 28 -6 63 -7 88 -1 155 -18
228 -57 60 -33 159 -120 159 -142 1 -5 10 -21 21 -34 19 -23 21 -23 37 -7 12
12 14 19 6 24 -6 4 -15 22 -19 40 -3 17 -13 32 -20 32 -8 0 -16 9 -20 20 -9
28 -90 96 -149 127 -41 20 -68 26 -136 28 -47 1 -104 -2 -127 -8z"/>
<path d="M1106 2792 c1 -32 24 -45 41 -24 20 26 15 39 -15 44 -24 3 -27 1 -26
-20z"/>
<path d="M2148 2687 c-10 -8 -18 -19 -18 -25 0 -6 -8 -13 -17 -16 -10 -2 -1
-2 20 1 30 4 36 2 32 -9 -5 -13 4 -15 49 -14 31 0 56 4 56 9 0 4 12 7 28 7 15
0 37 3 50 6 l23 7 -22 20 c-29 27 -173 36 -201 14z"/>
<path d="M7581 2651 c-20 -22 -72 -65 -115 -96 -94 -66 -117 -91 -109 -113 8
-22 62 -104 77 -117 7 -5 27 -32 46 -59 19 -27 46 -61 60 -75 14 -15 44 -49
67 -76 40 -48 54 -63 116 -121 26 -24 29 -25 52 -10 27 17 33 42 13 48 -7 3
-12 28 -12 67 l-1 63 49 -6 c28 -3 56 -12 63 -19 12 -12 21 -10 61 10 58 30
94 62 84 78 -4 7 -22 31 -41 54 -27 33 -40 41 -57 37 -19 -5 -23 -1 -29 32 -4
20 -16 52 -27 69 -10 18 -19 41 -18 50 4 37 0 44 -20 38 -13 -4 -31 2 -52 16
-29 21 -30 23 -12 31 14 6 12 7 -8 3 -18 -3 -28 -1 -28 6 0 13 -63 96 -89 117
-23 18 -30 15 -70 -27z m-84 -177 c64 -69 143 -190 143 -219 0 -33 -26 -10
-150 135 -63 73 -66 81 -44 97 23 17 23 17 51 -13z"/>
<path d="M2375 2630 c3 -5 8 -10 11 -10 2 0 4 5 4 10 0 6 -5 10 -11 10 -5 0
-7 -4 -4 -10z"/>
<path d="M3503 2548 c-10 -13 -83 -182 -83 -192 0 -2 -14 -35 -31 -73 -17 -37
-37 -84 -46 -103 -9 -19 -26 -55 -38 -80 -12 -25 -26 -62 -29 -84 -4 -21 -13
-52 -21 -70 -7 -17 -25 -71 -40 -121 -15 -49 -31 -99 -35 -110 -22 -47 -50
-147 -50 -173 0 -23 -86 -294 -119 -377 -16 -39 -50 -132 -81 -220 -41 -117
-168 -470 -185 -515 -31 -80 -115 -318 -115 -326 0 -5 -6 -20 -13 -34 -8 -14
-16 -36 -19 -48 l-6 -22 268 0 c260 0 269 1 275 20 3 11 11 20 16 20 5 0 9 10
9 23 0 13 9 33 20 45 11 12 20 25 20 31 0 5 7 12 16 15 9 3 14 11 12 18 -2 6
6 22 18 35 13 14 20 31 18 38 -3 8 4 20 15 27 12 7 21 21 21 31 0 13 5 17 16
13 8 -3 12 -2 9 4 -3 5 4 19 15 30 12 12 19 24 16 27 -7 7 19 56 38 72 9 8 16
22 16 32 0 11 5 19 10 19 6 0 10 9 10 20 0 11 7 23 15 26 8 4 15 12 15 20 0 7
9 29 20 49 11 19 20 38 20 43 2 16 44 92 52 92 4 0 8 9 8 20 0 11 5 20 11 20
6 0 9 6 6 13 -3 8 6 22 19 32 20 15 24 25 20 57 -2 21 0 38 5 38 5 0 9 9 9 20
0 11 7 23 15 26 8 4 15 14 15 23 0 10 3 21 8 25 4 4 7 11 7 14 1 4 7 18 15 32
8 14 17 48 21 75 11 81 29 179 36 195 12 32 12 66 -2 94 -8 16 -15 36 -15 44
0 18 -29 41 -52 42 -10 0 -18 5 -18 10 0 6 -5 10 -10 10 -6 0 -20 9 -31 19
-18 17 -21 32 -21 108 0 90 3 117 15 129 4 4 7 17 7 28 0 12 21 80 46 151 84
243 154 455 154 466 0 17 -40 49 -64 50 -53 3 -61 5 -59 15 2 13 -49 26 -70
18 -19 -7 -69 14 -62 26 9 15 -51 12 -62 -2z m-266 -910 c-3 -8 -6 -5 -6 6 -1
11 2 17 5 13 3 -3 4 -12 1 -19z m-19 -95 c-5 -25 -28 -28 -28 -4 0 12 6 21 16
21 9 0 14 -7 12 -17z m-4 -73 c3 -22 2 -48 -4 -57 -5 -10 -19 -40 -30 -68 -11
-27 -25 -58 -30 -67 -6 -10 -10 -23 -10 -30 0 -19 -44 -78 -59 -78 -9 0 -11 6
-6 18 4 9 7 22 7 27 -1 6 -1 19 -2 30 -1 11 6 45 15 75 9 30 22 74 29 98 11
37 55 90 77 92 4 0 9 -18 13 -40z"/>
<path d="M8076 2551 c-10 -16 16 -19 185 -25 184 -7 181 8 -4 19 -61 3 -126 8
-144 11 -17 2 -34 0 -37 -5z"/>
<path d="M8363 2553 c9 -2 23 -2 30 0 6 3 -1 5 -18 5 -16 0 -22 -2 -12 -5z"/>
<path d="M10312 2440 c0 -14 2 -19 5 -12 2 6 2 18 0 25 -3 6 -5 1 -5 -13z"/>
<path d="M2672 2423 c-5 -10 -12 -41 -15 -69 -21 -187 -117 -304 -307 -377
-80 -30 -214 -30 -295 1 -168 64 -273 197 -283 359 -3 47 -9 73 -16 73 -27 0
-48 -28 -53 -70 -4 -28 -15 -54 -29 -69 -13 -13 -24 -31 -24 -41 0 -17 38 -40
66 -40 8 0 19 -11 24 -24 10 -27 95 -134 124 -156 63 -48 105 -72 169 -96 59
-23 88 -28 167 -28 216 -2 375 94 466 280 30 62 37 89 41 159 5 68 3 87 -10
100 -15 14 -17 14 -25 -2z"/>
<path d="M7911 2364 c0 -11 3 -14 6 -6 3 7 2 16 -1 19 -3 4 -6 -2 -5 -13z"/>
<path d="M10307 2374 c-8 -8 1 -24 14 -24 5 0 9 7 9 15 0 15 -12 20 -23 9z"/>
<path d="M12775 2292 c-58 -24 -80 -42 -105 -85 -18 -31 -22 -49 -18 -102 3
-53 9 -71 34 -102 63 -79 125 -94 269 -63 100 21 171 93 146 147 -6 13 -11 32
-11 43 0 10 -16 33 -36 52 -20 18 -45 41 -55 51 -11 9 -23 17 -29 17 -5 0 -10
5 -10 10 0 15 -86 50 -118 49 -15 0 -45 -8 -67 -17z m285 -222 c0 -5 -4 -10
-10 -10 -5 0 -10 5 -10 10 0 6 5 10 10 10 6 0 10 -4 10 -10z"/>
<path d="M1100 1923 c-61 -24 -86 -93 -96 -263 -4 -74 -11 -121 -20 -131 -15
-16 -27 -128 -44 -389 -6 -85 -15 -190 -20 -232 -9 -64 -8 -83 5 -114 21 -52
38 -69 84 -84 51 -16 86 -7 126 35 37 37 49 88 65 270 35 403 40 482 35 504
-3 13 -1 85 6 160 14 160 9 202 -28 226 -28 18 -88 28 -113 18z m86 -41 c22
-14 26 -54 18 -188 -6 -130 -8 -136 -30 -145 -13 -4 -24 -10 -25 -11 0 -2 -4
-101 -8 -222 -7 -196 -9 -220 -26 -232 -23 -17 -64 -8 -89 20 -21 24 -20 46 9
436 18 247 27 298 61 328 25 22 68 29 90 14z m-131 -846 c35 -4 64 -2 77 5 31
17 38 -4 32 -96 -6 -90 -29 -174 -53 -192 -37 -29 -125 -4 -153 44 -15 26 -15
39 -2 153 7 69 14 127 14 130 0 2 7 -5 15 -16 10 -15 30 -23 70 -28z"/>
<path d="M4310 1634 c-14 -7 -19 -14 -12 -14 7 0 12 -12 12 -28 0 -35 30 -65
56 -56 13 4 15 3 6 -3 -9 -7 -6 -13 13 -23 15 -8 29 -26 32 -42 3 -16 10 -25
16 -21 6 4 8 0 4 -10 -4 -11 -1 -17 8 -17 8 0 15 -4 15 -9 0 -6 -13 -6 -32 0
-59 18 -102 20 -173 8 -65 -10 -74 -15 -116 -59 -25 -27 -54 -68 -64 -92 -32
-70 -42 -75 -56 -26 -19 71 1 144 52 190 23 21 45 35 49 33 5 -3 10 1 13 9 4
9 14 12 28 9 18 -5 21 -3 16 10 -4 10 -2 17 3 17 6 0 10 6 10 13 0 7 10 13 22
14 35 3 49 43 28 83 -9 16 -15 17 -40 8 -24 -8 -30 -16 -30 -40 0 -27 -1 -28
-16 -14 -17 18 -34 21 -34 6 0 -5 -6 -7 -13 -4 -20 7 -113 -88 -148 -152 -66
-123 -68 -255 -3 -384 44 -89 230 -307 438 -515 360 -358 513 -443 673 -374
63 27 139 106 154 161 14 54 6 173 -15 213 -9 17 -16 37 -16 45 0 15 -147 314
-204 415 -24 41 -129 206 -178 279 -90 131 -232 293 -288 328 -24 15 -96 34
-114 29 -5 -1 -12 2 -15 8 -11 17 -55 20 -81 5z m86 -54 c0 -12 -4 -16 -9 -11
-5 5 -6 14 -3 20 10 15 12 14 12 -9z m-86 -336 c15 -29 16 -29 35 -12 27 26
45 22 45 -10 0 -26 -21 -53 -51 -65 -8 -3 0 -6 17 -6 18 -1 34 -7 37 -15 8
-20 -25 -46 -57 -46 -24 0 -26 -3 -21 -22 18 -61 41 -97 63 -100 23 -3 23 -3
-10 -40 -18 -21 -45 -40 -59 -43 -24 -6 -25 -5 -24 38 l2 44 -34 -7 c-35 -8
-44 4 -20 29 10 10 7 16 -16 33 -67 49 -110 149 -85 197 23 43 44 48 73 21 15
-14 25 -20 23 -14 -4 13 43 54 57 51 6 -2 17 -17 25 -33z m154 -109 c-4 -8 -8
-15 -10 -15 -2 0 -4 7 -4 15 0 8 4 15 10 15 5 0 7 -7 4 -15z m116 -39 c0 -3
-4 -8 -10 -11 -5 -3 -10 -1 -10 4 0 6 5 11 10 11 6 0 10 -2 10 -4z m88 -225
c3 -8 -1 -12 -9 -9 -7 2 -15 10 -17 17 -3 8 1 12 9 9 7 -2 15 -10 17 -17z
m111 -103 c23 -32 41 -61 41 -64 0 -17 97 -119 111 -116 10 2 20 -10 29 -37
18 -54 3 -87 -69 -151 -69 -62 -68 -61 -114 -82 -75 -35 -80 -14 -5 22 60 29
133 94 123 109 -3 6 -15 11 -26 11 -24 0 -24 11 0 36 22 25 44 64 38 70 -2 2
-17 -14 -32 -36 -16 -23 -34 -40 -40 -38 -11 3 -145 172 -145 183 0 3 -16 29
-35 58 -37 55 -45 87 -20 87 8 0 25 11 37 25 l22 25 22 -21 c13 -12 41 -48 63
-81z m-152 86 c-3 -3 -12 -4 -19 -1 -8 3 -5 6 6 6 11 1 17 -2 13 -5z"/>
<path d="M4788 652 c-16 -2 -28 -10 -28 -18 0 -19 34 -18 50 1 16 19 13 21
-22 17z"/>
<path d="M4270 1600 c0 -5 5 -10 10 -10 6 0 10 5 10 10 0 6 -4 10 -10 10 -5 0
-10 -4 -10 -10z"/>
<path d="M2405 1583 c-11 -2 -29 -8 -40 -13 -11 -5 -42 -19 -70 -31 -27 -12
-79 -35 -115 -51 -36 -16 -83 -30 -105 -30 -39 0 -85 -17 -385 -143 -74 -31
-142 -59 -150 -62 -59 -21 -110 -52 -137 -82 -27 -30 -33 -44 -33 -81 1 -103
96 -146 220 -99 30 11 68 25 85 31 16 7 41 17 55 25 14 7 35 13 46 13 19 0 60
14 119 40 11 5 81 34 155 66 74 32 142 63 150 69 13 11 45 26 145 70 159 71
172 80 195 134 19 47 1 101 -42 123 -41 21 -67 27 -93 21z m75 -53 c23 -12 36
-70 22 -97 -10 -17 -64 -48 -152 -86 -19 -9 -62 -27 -95 -42 -38 -17 -69 -25
-86 -21 -15 3 -40 -1 -56 -9 -15 -7 -55 -25 -88 -39 -33 -14 -105 -45 -160
-70 -107 -49 -148 -56 -177 -29 -52 47 1 98 177 173 60 25 69 29 168 74 42 20
80 36 83 36 6 0 68 27 154 68 105 49 172 62 210 42z m-860 -300 c9 -6 14 -21
12 -45 -3 -29 2 -41 32 -71 20 -20 36 -39 36 -43 0 -9 -90 -46 -150 -61 -52
-14 -113 1 -136 34 -16 24 -18 69 -4 97 11 19 83 60 150 85 44 16 42 16 60 4z"/>
<path d="M9732 1310 c0 -14 2 -19 5 -12 2 6 2 18 0 25 -3 6 -5 1 -5 -13z"/>
<path d="M13010 1224 c-24 -7 -60 -68 -62 -105 0 -19 2 -50 6 -69 9 -40 58
-256 86 -376 23 -95 50 -257 50 -296 0 -39 -19 -27 -60 39 -19 31 -39 61 -45
67 -5 6 -22 29 -36 51 -126 195 -205 311 -213 317 -6 4 -29 10 -52 14 -80 12
-154 -47 -154 -124 0 -33 27 -97 71 -167 14 -22 37 -61 51 -86 45 -81 53 -94
58 -99 3 -3 11 -16 18 -30 7 -14 26 -47 44 -75 73 -117 138 -243 138 -267 0
-17 16 -18 185 -18 l185 0 0 395 c0 234 -4 402 -10 413 -5 9 -14 37 -19 62
-27 126 -68 268 -85 296 -32 53 -92 75 -156 58z"/>
<path d="M9717 1173 c-4 -3 -7 -11 -7 -17 0 -6 5 -5 12 2 6 6 9 14 7 17 -3 3
-9 2 -12 -2z"/>
<path d="M353 1134 c-5 -13 13 -114 24 -136 5 -10 73 23 73 35 0 11 -78 117
-86 117 -2 0 -7 -7 -11 -16z"/>
<path d="M9710 1071 c0 -17 2 -31 4 -31 8 0 13 51 5 56 -5 3 -9 -9 -9 -25z"/>
<path d="M571 862 c-13 -2 -26 -13 -28 -23 -4 -15 -13 -20 -37 -19 -49 3 -53
1 -59 -20 -3 -11 -12 -20 -21 -20 -9 0 -16 -4 -16 -8 0 -7 89 -221 120 -287
24 -54 50 -114 50 -119 0 -3 13 -34 29 -68 15 -35 51 -115 78 -178 l50 -115
137 -3 c109 -2 137 0 133 10 -2 7 -26 65 -52 129 -27 65 -45 124 -42 133 5 13
21 16 79 16 40 0 114 5 163 12 50 6 171 12 270 13 99 1 271 6 383 10 201 8
204 8 242 36 73 53 74 155 2 204 -35 24 -44 25 -172 25 -74 0 -184 -4 -245
-10 -60 -5 -189 -14 -285 -20 -321 -20 -424 -39 -485 -90 -21 -18 -61 11 -82
58 -9 20 -25 57 -36 82 -65 152 -116 245 -140 252 -7 2 -23 2 -36 0z m1455
-318 c24 -11 36 -26 43 -50 12 -42 -2 -95 -29 -111 -29 -19 -148 -27 -197 -14
l-42 11 25 27 c37 40 43 80 19 136 -6 15 0 17 70 17 50 0 89 -6 111 -16z
m-236 -44 c15 -15 19 -27 14 -48 -4 -15 -8 -28 -9 -30 -5 -5 -180 -29 -300
-41 -60 -6 -199 -20 -308 -31 -177 -18 -200 -19 -226 -5 -36 18 -47 47 -31 85
16 40 68 57 212 70 98 9 124 9 161 -4 38 -13 58 -13 167 0 68 8 126 16 128 19
3 3 43 5 89 5 70 0 86 -3 103 -20z"/>
<path d="M12055 563 c-32 -8 -64 -44 -76 -83 -9 -31 -8 -43 9 -76 23 -46 121
-145 262 -264 29 -25 62 -54 75 -65 12 -11 36 -32 53 -47 l32 -28 205 0 c113
0 205 3 204 8 0 4 -48 44 -107 89 -59 46 -132 106 -162 135 -30 28 -71 63 -92
77 -31 22 -89 70 -188 154 -113 97 -154 116 -215 100z"/>
</g>
</svg>
